<?xml version="1.0" encoding="UTF-8"?>
<svg xmlns="http://www.w3.org/2000/svg" xmlns:xlink="http://www.w3.org/1999/xlink" width="500pt" height="500pt" viewBox="0 0 500 500" version="1.1">
<g id="surface5625930">
<path style=" stroke:none;fill-rule:nonzero;fill:rgb(0%,0%,0%);fill-opacity:1;" d="M 26.125 26.125 L 26.125 473 L 473 473 L 473 26.125 Z M 66.75 66.75 L 432.375 66.75 L 432.375 432.375 L 66.75 432.375 Z M 148 87.0625 C 125.566406 87.0625 107.375 105.253906 107.375 127.6875 C 107.375 150.125 125.566406 168.3125 148 168.3125 C 170.4375 168.3125 188.625 150.125 188.625 127.6875 C 188.625 105.253906 170.4375 87.0625 148 87.0625 Z M 351.125 87.0625 C 328.691406 87.0625 310.5 105.253906 310.5 127.6875 C 310.5 150.125 328.691406 168.3125 351.125 168.3125 C 373.5625 168.3125 391.75 150.125 391.75 127.6875 C 391.75 105.253906 373.5625 87.0625 351.125 87.0625 Z M 148 208.9375 C 125.566406 208.9375 107.375 227.128906 107.375 249.5625 C 107.375 272 125.566406 290.1875 148 290.1875 C 170.4375 290.1875 188.625 272 188.625 249.5625 C 188.625 227.128906 170.4375 208.9375 148 208.9375 Z M 351.125 208.9375 C 328.691406 208.9375 310.5 227.128906 310.5 249.5625 C 310.5 272 328.691406 290.1875 351.125 290.1875 C 373.5625 290.1875 391.75 272 391.75 249.5625 C 391.75 227.128906 373.5625 208.9375 351.125 208.9375 Z M 148 330.8125 C 125.566406 330.8125 107.375 349.003906 107.375 371.4375 C 107.375 393.875 125.566406 412.0625 148 412.0625 C 170.4375 412.0625 188.625 393.875 188.625 371.4375 C 188.625 349.003906 170.4375 330.8125 148 330.8125 Z M 351.125 330.8125 C 328.691406 330.8125 310.5 349.003906 310.5 371.4375 C 310.5 393.875 328.691406 412.0625 351.125 412.0625 C 373.5625 412.0625 391.75 393.875 391.75 371.4375 C 391.75 349.003906 373.5625 330.8125 351.125 330.8125 Z M 351.125 330.8125 "/>
</g>
</svg>
