<?xml version="1.0" encoding="UTF-8"?>
<svg xmlns="http://www.w3.org/2000/svg" xmlns:xlink="http://www.w3.org/1999/xlink" width="500pt" height="500pt" viewBox="0 0 500 500" version="1.1">
<g id="surface5625910">
<path style=" stroke:none;fill-rule:nonzero;fill:rgb(0%,0%,0%);fill-opacity:1;" d="M 26.125 26.125 L 26.125 473 L 473 473 L 473 26.125 Z M 66.75 66.75 L 432.375 66.75 L 432.375 432.375 L 66.75 432.375 Z M 148 107.375 C 125.566406 107.375 107.375 125.566406 107.375 148 C 107.375 170.4375 125.566406 188.625 148 188.625 C 170.4375 188.625 188.625 170.4375 188.625 148 C 188.625 125.566406 170.4375 107.375 148 107.375 Z M 351.125 310.5 C 328.691406 310.5 310.5 328.691406 310.5 351.125 C 310.5 373.5625 328.691406 391.75 351.125 391.75 C 373.5625 391.75 391.75 373.5625 391.75 351.125 C 391.75 328.691406 373.5625 310.5 351.125 310.5 Z M 351.125 310.5 "/>
</g>
</svg>
